Coordinates
version=1
nRows=10
nColumns=40
inDegrees=yes

Units are S.I. units (second, meters, Newtons, ...)
If the header above contains a line with 'inDegrees', this indicates whether rotational values are in degrees (yes) or radians (no).

endheader
time	pelvis_tilt	pelvis_list	pelvis_rotation	pelvis_tx	pelvis_ty	pelvis_tz	hip_flexion_r	hip_adduction_r	hip_rotation_r	knee_angle_r	knee_angle_r_beta	ankle_angle_r	subtalar_angle_r	mtp_angle_r	hip_flexion_l	hip_adduction_l	hip_rotation_l	knee_angle_l	knee_angle_l_beta	ankle_angle_l	subtalar_angle_l	mtp_angle_l	lumbar_extension	lumbar_bending	lumbar_rotation	arm_flex_r	arm_add_r	arm_rot_r	elbow_flex_r	pro_sup_r	wrist_flex_r	wrist_dev_r	arm_flex_l	arm_add_l	arm_rot_l	elbow_flex_l	pro_sup_l	wrist_flex_l	wrist_dev_l
      4.42500000	    -24.24413808	     -8.13487254	     -2.66924772	     -0.37598865	      0.80996080	     -0.73303323	     68.97508667	     13.53739762	     -5.07425304	     70.30560763	      1.22706434	     22.95939203	      0.00000000	      0.00000000	     35.44428555	     -7.14682356	      7.22446518	     95.71260199	      1.67050004	     -9.34530470	      0.00000000	      0.00000000	    -19.17581414	      9.55091508	      6.42807057	     89.94774083	    -12.55973306	      8.28331911	     58.91332957	     86.23660667	      0.00000000	      0.00000000	     89.95018344	     -5.56012112	      6.38925961	     56.43670233	     85.06314010	      0.00000000	      0.00000000
      4.43000000	    -24.16426514	     -8.14313054	     -2.57814723	     -0.37586917	      0.81133109	     -0.73303514	     68.72817970	     13.49976141	     -5.05107575	     70.01376127	      1.22197066	     22.84847387	      0.00000000	      0.00000000	     35.39916842	     -7.13727402	      7.28138275	     95.70093693	      1.67029645	     -9.36716274	      0.00000000	      0.00000000	    -19.22368302	      9.55100598	      6.34428321	     89.94759442	    -12.57917310	      8.29671290	     58.88681420	     86.23731221	      0.00000000	      0.00000000	     89.95009660	     -5.53747933	      6.42556004	     56.39442325	     85.06848539	      0.00000000	      0.00000000
      4.43500000	    -24.09958138	     -8.13341779	     -2.50051441	     -0.37579959	      0.81258390	     -0.73302481	     68.51194378	     13.44284054	     -5.04200215	     69.74735764	      1.21732104	     22.74500164	      0.00000000	      0.00000000	     35.37278626	     -7.10054651	      7.33817679	     95.69097377	      1.67012256	     -9.38661923	      0.00000000	      0.00000000	    -19.24796032	      9.54172298	      6.27476098	     89.94750440	    -12.60914585	      8.30804945	     58.84872137	     86.24009176	      0.00000000	      0.00000000	     89.94995698	     -5.53516217	      6.45188393	     56.35822595	     85.07223248	      0.00000000	      0.00000000
      4.44000000	    -24.01928908	     -8.15785629	     -2.41772924	     -0.37562724	      0.81397669	     -0.73311117	     68.24302971	     13.40429418	     -5.06391234	     69.43775702	      1.21191749	     22.63546163	      0.00000000	      0.00000000	     35.32312098	     -7.04506781	      7.39898670	     95.65046230	      1.66941550	     -9.41667978	      0.00000000	      0.00000000	    -19.30253739	      9.56653266	      6.19507689	     89.94738812	    -12.64184229	      8.30031145	     58.82659207	     86.23778397	      0.00000000	      0.00000000	     89.94989922	     -5.52830357	      6.49223977	     56.31771213	     85.07915952	      0.00000000	      0.00000000
      4.44500000	    -23.84864124	     -8.28581492	     -2.29812618	     -0.37536919	      0.81548631	     -0.73308189	     67.90686648	     13.39937894	     -5.17746382	     69.16639667	      1.20718135	     22.50492965	      0.00000000	      0.00000000	     35.16615437	     -7.16458374	      7.55271863	     95.60459907	      1.66861503	     -9.43145964	      0.00000000	      0.00000000	    -19.45603473	      9.70998969	      6.15597101	     89.94738639	    -12.65245722	      8.34761426	     58.79094887	     86.24764409	      0.00000000	      0.00000000	     89.94979374	     -5.55219322	      6.52649259	     56.28681555	     85.08821911	      0.00000000	      0.00000000
      4.45000000	    -23.83486612	     -8.22761022	     -2.25373905	     -0.37540796	      0.81657873	     -0.73306325	     67.77868551	     13.32604351	     -5.15627440	     68.97510175	      1.20384263	     22.45407573	      0.00000000	      0.00000000	     35.22154532	     -7.11469826	      7.50792121	     95.64781093	      1.66936922	     -9.42217978	      0.00000000	      0.00000000	    -19.42938713	      9.64492610	      6.09674633	     89.94730674	    -12.69714051	      8.32030550	     58.80223558	     86.24418544	      0.00000000	      0.00000000	     89.94968805	     -5.55312248	      6.53272181	     56.28303703	     85.09020413	      0.00000000	      0.00000000
      4.45500000	    -23.81629264	     -8.17101812	     -2.20643164	     -0.37537518	      0.81778421	     -0.73307485	     67.60188906	     13.26020009	     -5.10263852	     68.70199678	      1.19907605	     22.35638263	      0.00000000	      0.00000000	     35.23926532	     -7.02712844	      7.51086064	     95.62408226	      1.66895508	     -9.39604660	      0.00000000	      0.00000000	    -19.40953382	      9.58069899	      6.03935728	     89.94711807	    -12.71233561	      8.32222442	     58.77972003	     86.24598735	      0.00000000	      0.00000000	     89.94953745	     -5.52834441	      6.57361569	     56.25547948	     85.09524885	      0.00000000	      0.00000000
      4.46000000	    -23.76734551	     -8.14218461	     -2.12574631	     -0.37529437	      0.81905684	     -0.73313312	     67.40357773	     13.18942668	     -5.06578168	     68.45620154	      1.19478611	     22.25319435	      0.00000000	      0.00000000	     35.22995068	     -6.99619192	      7.51510053	     95.61004877	      1.66871015	     -9.40518017	      0.00000000	      0.00000000	    -19.41606664	      9.55935831	      5.96743108	     89.94697620	    -12.76969457	      8.31158177	     58.75696162	     86.24382788	      0.00000000	      0.00000000	     89.94943018	     -5.53580289	      6.60129639	     56.21754697	     85.09950499	      0.00000000	      0.00000000
      4.46500000	    -23.74563296	     -8.08414991	     -2.13929591	     -0.37529685	      0.82020505	     -0.73296041	     67.24713841	     13.16686833	     -5.03498101	     68.23049107	      1.19084672	     22.15191963	      0.00000000	      0.00000000	     35.24019093	     -6.95018310	      7.48839091	     95.61838261	      1.66885560	     -9.40738350	      0.00000000	      0.00000000	    -19.40063498	      9.47481274	      5.95576767	     89.94687967	    -12.75660449	      8.32613678	     58.73715270	     86.24658212	      0.00000000	      0.00000000	     89.94930104	     -5.53015931	      6.63082287	     56.19597813	     85.10333195	      0.00000000	      0.00000000
      4.47000000	    -23.64262015	     -8.11888005	     -2.05323679	     -0.37507031	      0.82166430	     -0.73292877	     66.94432559	     13.14269205	     -5.02768038	     67.87556435	      1.18465208	     21.99194642	      0.00000000	      0.00000000	     35.14528058	     -6.97617322	      7.53998822	     95.55520429	      1.66775293	     -9.41761494	      0.00000000	      0.00000000	    -19.46986274	      9.49881388	      5.90203799	     89.94659553	    -12.78912389	      8.34678915	     58.70502954	     86.25441690	      0.00000000	      0.00000000	     89.94928657	     -5.52566157	      6.68334931	     56.13252841	     85.11105832	      0.00000000	      0.00000000
